<svg version="1.1" id="Layer_1" xmlns="http://www.w3.org/2000/svg" xmlns:xlink="http://www.w3.org/1999/xlink" x="0px" y="0px"
	 width="100%" viewBox="0 0 816 1024" enable-background="new 0 0 816 1024" xml:space="preserve">
<path fill="#000000" opacity="1.000000" stroke="none" 
	d="
M266.192841,480.337463 
	C242.579041,488.114899 219.323334,495.716461 196.129868,503.503448 
	C192.906418,504.585663 191.326141,504.268188 190.251556,500.798157 
	C186.461075,488.558105 182.365723,476.412781 178.515106,464.190857 
	C176.324921,457.239197 176.791443,456.477661 183.690979,454.176880 
	C234.386337,437.271637 285.096649,420.411041 335.759399,403.408661 
	C339.244629,402.239014 341.594513,402.614105 344.173401,405.284454 
	C348.913849,410.192963 354.154968,414.617798 358.897034,419.524872 
	C361.335693,422.048401 363.288605,422.091736 366.240753,420.437561 
	C392.104919,405.945374 418.047668,391.593384 443.966400,377.198608 
	C451.975128,372.750671 459.957642,368.254913 467.996338,363.861938 
	C474.881165,360.099548 475.014465,359.979004 471.216003,352.878662 
	C464.066803,339.514801 456.817322,326.204620 449.644745,312.853241 
	C446.123535,306.298706 447.217316,304.351196 454.492676,304.654541 
	C492.913513,306.256592 531.329895,307.963776 569.750305,309.578033 
	C582.394104,310.109283 595.045410,310.459900 607.692200,310.923187 
	C609.686523,310.996246 611.685059,311.150665 613.664368,311.403168 
	C619.640259,312.165649 620.642761,314.128235 617.644226,319.224396 
	C611.731567,329.273285 605.795044,339.308105 599.843933,349.334290 
	C579.270386,383.995667 558.686401,418.650848 538.105957,453.308167 
	C537.425537,454.453949 536.766602,455.613495 536.052979,456.738281 
	C532.794434,461.874237 530.005310,461.787720 527.031921,456.334869 
	C522.088379,447.269073 517.244446,438.148956 512.351318,429.055634 
	C510.141449,424.949036 507.804779,420.906311 505.725189,416.735168 
	C503.615601,412.503937 501.165131,411.490723 496.617371,413.880432 
	C467.132477,429.374359 437.518677,444.622925 407.942108,459.942322 
	C389.456482,469.517120 370.924835,479.004333 352.511261,488.715576 
	C349.679779,490.208862 348.052216,489.548096 346.019806,487.576569 
	C338.247620,480.037079 330.304047,472.674072 322.545227,465.121155 
	C320.621826,463.248779 318.919464,462.855530 316.338318,463.727386 
	C299.781158,469.319946 283.166443,474.742188 266.192841,480.337463 
z"/>
<path fill="#000000" opacity="1.000000" stroke="none" 
	d="
M677.586304,949.254761 
	C671.083801,950.174622 665.036865,948.769653 658.937012,948.241577 
	C646.006531,947.122009 633.106445,945.652466 620.176819,944.522095 
	C616.601685,944.209595 615.446045,942.840881 615.464966,939.198547 
	C615.612610,910.708557 615.873291,882.213074 615.481812,853.727844 
	C614.966614,816.243042 614.766174,778.753357 615.289551,741.279785 
	C615.696655,712.130981 615.327942,682.986084 615.312805,653.849731 
	C615.289917,609.870972 615.268799,565.887390 615.148621,521.906372 
	C615.085327,498.752869 615.512329,475.598206 615.514465,452.444061 
	C615.514893,448.405212 616.923828,447.041016 620.872070,446.509308 
	C638.018066,444.200104 655.116943,441.540588 672.233948,439.015167 
	C677.889832,438.180695 678.380005,438.615173 678.380798,444.663452 
	C678.389832,514.807678 678.391418,584.951965 678.392822,655.096191 
	C678.394836,750.399109 678.399048,845.701965 678.375549,941.004883 
	C678.374939,943.649414 678.783997,946.338013 677.586304,949.254761 
z"/>
<path fill="#000000" opacity="1.000000" stroke="none" 
	d="
M560.323853,507.000702 
	C560.322144,641.455933 560.320740,775.411194 560.317627,909.366516 
	C560.317444,917.773499 560.339233,917.490723 552.016968,916.672791 
	C538.440308,915.338501 524.823792,914.409790 511.223083,913.322205 
	C508.567352,913.109863 505.901520,912.743103 503.250244,912.814514 
	C497.860474,912.959595 496.801880,910.177368 496.805511,905.303589 
	C496.905090,771.181763 496.874390,637.059875 496.869934,502.937958 
	C496.869690,495.388824 496.905884,495.546295 504.607239,494.650513 
	C521.632507,492.670227 538.650269,490.612213 555.640442,488.355255 
	C559.334900,487.864471 560.470764,489.012085 560.358032,492.506897 
	C560.207764,497.167084 560.322693,501.835754 560.323853,507.000702 
z"/>
<path fill="#000000" opacity="1.000000" stroke="none" 
	d="
M378.725128,584.000000 
	C378.724030,575.171082 378.877228,566.838074 378.653992,558.515137 
	C378.551788,554.704102 379.986481,553.127319 383.709473,552.779602 
	C401.261383,551.140442 418.825378,549.573364 436.328522,547.502869 
	C441.723206,546.864685 442.381439,548.902405 442.356750,553.438110 
	C442.201874,581.922119 442.263092,610.407410 442.263428,638.892273 
	C442.264465,723.847107 442.270477,808.801880 442.274445,893.756714 
	C442.274811,901.489380 442.263000,901.691467 434.628235,901.256531 
	C418.018494,900.310303 401.426880,899.043030 384.816315,898.113342 
	C379.843597,897.834961 378.638092,895.614624 378.644012,890.837219 
	C378.770477,788.724976 378.732056,686.612427 378.725128,584.000000 
z"/>
<path fill="#000000" opacity="1.000000" stroke="none" 
	d="
M324.149109,778.000000 
	C324.138428,812.154846 324.130554,845.809753 324.113831,879.464600 
	C324.110382,886.410889 324.079803,886.594727 317.150299,886.241516 
	C299.699280,885.351807 282.259277,884.247803 264.809631,883.328857 
	C261.870331,883.174072 260.531097,881.974304 260.690582,879.036255 
	C260.762665,877.707703 260.683929,876.371338 260.683899,875.038513 
	C260.681824,784.736816 260.728394,694.434998 260.560425,604.133606 
	C260.550446,598.764404 261.750732,596.522278 267.445862,596.186462 
	C281.551300,595.354675 295.620575,593.907166 309.703094,592.691711 
	C312.354034,592.462952 314.997314,592.146423 317.646820,591.899658 
	C323.481171,591.356201 324.037903,591.846924 324.127686,597.563049 
	C324.148621,598.895630 324.144714,600.228699 324.144745,601.561523 
	C324.146606,660.207703 324.147614,718.853821 324.149109,778.000000 
z"/>
<path fill="#000000" opacity="1.000000" stroke="none" 
	d="
M349.153625,138.143524 
	C357.775757,134.915970 366.018890,131.786621 374.308502,128.785568 
	C377.416260,127.660461 380.369293,128.446548 382.548096,130.832016 
	C384.633118,133.114731 385.581818,135.821320 384.517822,139.104126 
	C381.624207,148.032181 376.615356,155.968414 372.825378,164.474228 
	C371.040222,168.480728 369.736450,171.758530 373.896362,175.468201 
	C376.480682,177.772858 378.365143,181.319305 377.431610,185.396255 
	C376.833496,188.008408 379.072937,188.816681 380.598450,189.944122 
	C395.903595,201.255600 408.604950,214.945831 418.695465,231.098450 
	C428.547791,246.869797 433.894928,264.148346 433.994171,282.581177 
	C434.101868,302.578491 427.100189,320.647827 415.714264,337.021088 
	C399.601776,360.191254 378.292694,376.526001 351.402039,385.207458 
	C325.385406,393.606750 299.171936,393.861359 272.822510,386.378754 
	C251.739227,380.391571 233.105881,369.866730 217.472656,354.807892 
	C197.067032,335.151886 184.925827,311.363647 187.834183,282.144684 
	C189.921417,261.175079 198.155350,242.410187 210.836472,225.507156 
	C220.113083,213.142090 230.876633,202.379303 243.333527,193.296036 
	C245.985382,191.362381 247.240524,189.608627 245.224884,186.356110 
	C243.422943,183.448441 244.506104,180.389664 246.455811,177.975464 
	C249.051117,174.761887 248.601578,171.653778 247.145966,168.239182 
	C244.079254,161.045212 241.213470,153.764862 238.095810,146.593613 
	C236.181061,142.189255 236.304321,138.136520 239.571945,134.516235 
	C242.932297,130.793198 246.885696,131.772232 251.087204,133.053970 
	C262.684204,136.591888 274.381866,139.798523 285.999451,143.270920 
	C288.541199,144.030640 290.134033,143.117889 291.637177,141.318787 
	C295.690430,136.467468 299.580933,131.461014 303.894257,126.851334 
	C308.439758,121.993530 313.079559,122.278725 317.599915,127.088387 
	C322.041901,131.814651 326.656097,136.385773 330.950073,141.241318 
	C332.864105,143.405655 334.558441,143.520187 337.047729,142.486053 
	C340.881836,140.893265 344.870209,139.671753 349.153625,138.143524 
M413.301483,279.812317 
	C412.464691,246.460754 387.049408,217.125565 370.904205,206.324219 
	C371.542572,209.436615 372.046417,212.377258 372.767944,215.263519 
	C373.388916,217.747467 372.446533,219.551483 370.560852,220.895386 
	C364.132385,225.476776 353.220123,221.185837 351.617401,213.563202 
	C350.376404,207.660889 348.984894,201.790222 347.612579,195.693542 
	C344.958557,197.002411 345.265839,198.918030 344.896606,200.424255 
	C343.669342,205.430801 342.641876,210.485916 341.478394,215.508652 
	C340.475464,219.838486 337.643341,221.963547 333.248566,222.042877 
	C331.250153,222.078979 329.245972,222.115723 327.251953,222.009827 
	C322.144287,221.738586 320.048035,219.098114 321.038605,214.108429 
	C321.945038,209.542603 322.719269,204.923615 324.046631,200.475739 
	C325.395721,195.955109 323.661499,194.888214 319.503876,194.938110 
	C307.343414,195.084091 295.161438,195.420425 283.024719,194.869934 
	C274.907837,194.501770 268.317963,196.752319 261.768188,201.454147 
	C234.731369,220.862778 214.304626,244.759003 208.785873,278.705811 
	C206.145920,294.944702 208.998856,310.468964 217.722702,324.691589 
	C227.726532,341.000946 241.594025,353.041809 258.376068,361.986603 
	C287.108215,377.300781 316.829254,379.747101 347.538483,368.927551 
	C371.529572,360.474915 388.903564,344.133759 402.027527,322.761536 
	C409.991241,309.792725 413.596893,295.720123 413.301483,279.812317 
M291.499939,171.689972 
	C309.629913,171.688583 327.759949,171.700363 345.889862,171.665161 
	C347.674103,171.661697 350.019012,172.384186 351.093872,170.749954 
	C354.942291,164.898743 358.561584,158.876877 360.448212,151.180511 
	C352.465637,154.083023 345.088745,156.214844 338.212402,159.420410 
	C331.336060,162.625977 326.530823,160.611023 321.937653,155.492783 
	C318.540070,151.706818 315.277313,147.731476 310.676758,144.384445 
	C308.035370,147.417160 305.506317,150.235504 303.071228,153.132782 
	C295.730865,161.866364 293.154419,162.512390 282.357513,159.106613 
	C274.688202,156.687408 266.898956,154.648376 257.954926,152.094650 
	C260.449005,158.274933 262.476379,163.131531 264.363678,168.041946 
	C265.396698,170.729584 267.094910,171.816925 270.042877,171.740295 
	C276.857727,171.563110 283.680420,171.687515 291.499939,171.689972 
z"/>
<path fill="#000000" opacity="1.000000" stroke="none" 
	d="
M156.087219,872.176086 
	C142.636612,871.503845 142.629547,871.503845 142.628143,858.727112 
	C142.621033,793.741333 142.617828,728.755554 142.613495,663.769775 
	C142.613052,657.135315 142.609299,657.069214 149.283768,656.613037 
	C166.717575,655.421448 184.160828,654.363037 201.587982,653.083496 
	C205.230255,652.816040 205.781021,654.571716 205.772385,657.517700 
	C205.634430,704.503418 205.518997,751.489075 205.438187,798.474915 
	C205.397507,822.125000 205.364197,845.775574 205.511322,869.424866 
	C205.535583,873.324646 204.103287,874.208618 200.485748,874.024536 
	C185.854752,873.279846 171.211349,872.779053 156.087219,872.176086 
z"/>
<path fill="#000000" opacity="1.000000" stroke="none" 
	d="
M275.839355,253.277161 
	C277.123901,255.841919 278.234711,258.079071 279.313477,260.331512 
	C281.469330,264.832916 286.191528,265.275543 288.878571,261.000061 
	C291.175995,257.344604 293.009827,253.399246 295.081635,249.600067 
	C296.960266,246.155136 299.600647,246.005859 304.382629,248.828140 
	C307.963959,250.941833 305.913269,252.612854 304.305695,254.723953 
	C302.631683,256.922302 300.954132,259.260895 300.600098,262.842438 
	C308.407562,262.979614 307.162537,268.628601 307.136719,273.635681 
	C307.106659,279.467896 306.986450,285.305206 307.179932,291.131165 
	C307.323944,295.468628 305.928070,297.978760 301.199860,297.336914 
	C296.335785,296.676666 294.621582,298.742157 295.022827,303.519562 
	C295.356354,307.490753 295.057343,311.512360 295.114319,315.510559 
	C295.143005,317.521027 295.075317,319.706360 298.020203,319.792480 
	C300.884674,319.876221 300.952087,317.624603 301.425110,315.717010 
	C301.504883,315.395355 301.507050,315.055237 301.573151,314.729340 
	C301.965240,312.796082 301.072571,309.533752 304.435211,310.105591 
	C307.548492,310.634949 311.581299,311.578796 310.980042,316.124695 
	C310.387543,320.604218 311.109467,326.246735 306.260040,328.629303 
	C300.545563,331.436890 294.166595,330.998688 288.306915,328.577454 
	C285.238922,327.309723 284.776062,323.909119 284.731903,320.830902 
	C284.643463,314.666260 284.711945,308.499451 284.646637,302.334290 
	C284.629883,300.750244 285.121216,298.974579 283.394226,297.542114 
	C279.495667,298.620667 278.992401,301.960480 278.332764,305.146423 
	C276.149353,315.691650 271.623718,324.616425 261.637512,329.931549 
	C259.058624,331.304138 257.277954,331.265839 255.223892,328.754883 
	C252.424164,325.332397 252.500809,323.286804 256.627899,321.103973 
	C264.017365,317.195679 267.149506,310.263580 268.553955,302.436584 
	C268.847778,300.799347 269.646912,298.546844 267.293274,297.624512 
	C264.994629,296.723755 263.816193,298.173645 262.580200,300.061737 
	C258.694611,305.997253 258.255157,305.930573 253.498001,300.243378 
	C253.121948,299.793823 252.569839,299.491455 251.311935,298.499756 
	C251.311935,307.765778 251.260101,316.196381 251.336182,324.625854 
	C251.368835,328.243042 251.237854,331.277039 246.283127,331.323334 
	C241.420776,331.368713 240.939774,328.428986 240.949326,324.776886 
	C240.967575,317.807953 240.954636,310.838989 239.953659,303.507355 
	C238.502975,305.981567 237.214722,308.572388 235.549454,310.892578 
	C234.253464,312.698273 233.191498,316.565796 230.225601,314.284607 
	C227.729828,312.365021 224.915375,309.276703 227.641724,305.254242 
	C231.304306,299.850372 234.138504,294.008575 236.618469,287.991577 
	C237.302063,286.333069 238.281616,284.686676 237.697693,282.712585 
	C235.891052,281.485107 233.821899,281.979126 231.874435,281.896332 
	C228.389587,281.748138 226.758270,280.173401 226.839981,276.576691 
	C226.923096,272.919617 228.681503,271.456146 232.182098,271.708649 
	C232.844833,271.756409 233.514648,271.708069 234.181183,271.701050 
	C241.292557,271.626312 241.967453,270.674316 240.116837,263.259888 
	C237.905228,262.771851 235.861420,263.660492 233.805252,264.208160 
	C230.032242,265.213074 228.272552,263.420929 227.262421,260.044586 
	C226.097931,256.152313 229.032623,255.975876 231.364746,255.356705 
	C238.942734,253.344788 246.416031,251.051758 253.495865,247.625198 
	C255.048080,246.873932 256.862671,246.084976 258.170166,247.444717 
	C261.206726,250.602646 263.972412,249.690018 267.285309,247.861694 
	C272.681000,244.883972 273.458527,250.245300 275.839355,253.277161 
M296.669464,278.037842 
	C297.136627,274.563385 295.582062,273.215698 292.143250,273.379486 
	C288.662292,273.545380 285.166321,273.388397 281.676910,273.385376 
	C271.588562,273.376587 271.025269,274.080231 272.076202,284.147034 
	C272.333069,286.607635 273.268463,287.752411 275.773102,287.712891 
	C279.759888,287.649933 283.748535,287.708588 287.736389,287.710510 
	C296.664703,287.714813 296.664703,287.713470 296.669464,278.037842 
M261.784454,267.555359 
	C262.164368,262.995636 266.370758,264.267761 269.376434,262.972076 
	C267.992798,259.593719 266.920654,256.377441 264.511627,253.837982 
	C262.347473,254.738083 260.448761,255.854645 258.402222,256.317230 
	C252.427475,257.667694 250.412689,261.314972 251.282318,267.154205 
	C251.604568,269.318054 251.197098,271.932068 254.409103,271.583954 
	C257.073181,271.295227 261.194702,273.706573 261.784454,267.555359 
M257.642059,290.723755 
	C258.888977,291.596863 259.411346,293.555847 261.442810,293.372559 
	C261.442810,289.661621 261.442810,286.072144 261.442810,281.896149 
	C257.988800,282.431915 254.725769,280.893524 251.176392,283.497040 
	C253.292404,285.868469 255.236816,288.047577 257.642059,290.723755 
z"/>
<path fill="#000000" opacity="1.000000" stroke="none" 
	d="
M328.280182,305.554108 
	C327.079498,302.876282 326.005005,300.876373 322.818634,300.817535 
	C319.898499,300.763550 319.038605,298.563843 319.172821,295.889221 
	C319.317047,293.015289 320.438690,291.063416 323.629272,291.040985 
	C330.459534,290.992920 337.290009,290.950256 344.120392,290.954102 
	C346.892029,290.955688 349.113129,290.536163 349.045288,286.955597 
	C348.981598,283.592621 346.832520,283.499817 344.303955,283.345734 
	C339.723938,283.066620 335.195923,283.714508 330.510590,282.322205 
	C327.537842,281.438843 324.818420,285.185913 321.996490,286.858856 
	C319.529572,288.321320 317.606750,288.692383 315.488190,286.158051 
	C311.922699,281.892853 311.996582,280.833099 316.879608,277.850494 
	C329.243652,270.298462 340.165100,261.135895 348.222412,248.960159 
	C350.437073,245.613480 353.264252,245.670090 356.504181,246.158401 
	C359.276917,246.576309 362.235413,246.496399 362.158966,250.759216 
	C362.138153,251.921112 363.759125,253.187073 364.762207,254.280945 
	C373.163055,263.442169 382.825623,271.013977 393.655243,277.107788 
	C395.847534,278.341400 398.568878,279.478638 396.284302,282.703949 
	C394.468109,285.267944 393.028534,289.393219 388.684204,286.496185 
	C384.071014,283.419861 379.699738,281.189117 373.775726,283.194458 
	C370.782898,284.207550 367.170074,283.432831 363.838684,283.387421 
	C361.442993,283.354767 360.053955,284.217468 360.023285,286.833466 
	C359.992676,289.444458 360.939087,290.952698 363.765778,290.941620 
	C370.263367,290.916138 376.762543,290.870575 383.258240,290.988525 
	C386.428497,291.046051 390.142761,290.142700 390.460327,295.456665 
	C390.766144,300.572968 387.632385,301.169281 383.904297,301.327484 
	C382.665619,307.595398 376.477875,310.948029 375.001831,317.440765 
	C379.161133,319.564331 383.671875,318.418457 388.000732,318.464783 
	C391.308380,318.500244 394.348907,317.956451 394.453461,322.929962 
	C394.556427,327.827576 391.821259,328.242889 388.070984,328.232178 
	C365.911987,328.168976 343.752655,328.165161 321.593597,328.218781 
	C317.987152,328.227509 315.516846,327.710144 315.548035,323.121063 
	C315.579193,318.532837 318.333160,318.580811 321.507446,318.593475 
	C325.473999,318.609344 329.461395,318.761566 333.617218,317.676971 
	C333.144501,313.086853 330.495544,309.609436 328.280182,305.554108 
M352.371002,261.195282 
	C348.786316,264.989502 345.201630,268.783722 340.880646,273.357300 
	C350.622925,273.737305 359.233582,274.174072 368.569336,272.046997 
	C364.875854,267.552307 360.551178,263.944672 356.399780,260.147614 
	C354.709686,258.601746 353.817261,259.445618 352.371002,261.195282 
M343.579346,300.977020 
	C341.828308,301.221985 339.938507,300.672546 337.948456,302.097748 
	C340.414246,307.368683 343.564911,312.367279 344.969574,317.963318 
	C347.645081,318.184509 348.869873,317.199890 349.015350,314.944946 
	C349.207489,311.965912 349.447571,308.987701 349.541321,306.005157 
	C349.650055,302.545746 348.052002,300.688263 343.579346,300.977020 
M365.450256,300.975861 
	C363.584045,301.253967 360.841614,300.474854 360.444458,303.043488 
	C359.706787,307.814636 359.511871,312.688446 361.239532,318.908875 
	C365.722778,312.869171 369.372223,308.040039 371.464386,302.328400 
	C369.624939,300.689911 367.905243,301.089325 365.450256,300.975861 
z"/>
</svg>